<svg width="203" height="176" viewBox="0 0 203 176" fill="none" xmlns="http://www.w3.org/2000/svg">
<path d="M186 100C186 89.7395 183.895 79.588 179.814 70.1738C175.734 60.7595 169.765 52.2826 162.277 45.2675C154.789 38.2524 145.942 32.8483 136.282 29.3896C126.622 25.9309 116.355 24.491 106.116 25.1592L108.005 54.0976C114.284 53.6878 120.581 54.5709 126.506 56.6923C132.431 58.8136 137.857 62.1281 142.45 66.4307C147.043 70.7333 150.703 75.9325 153.206 81.7066C155.709 87.4807 157 93.7069 157 100H186Z" fill="#112C18" stroke="white"/>
<path d="M106.116 25.1592C89.0454 26.2732 72.8685 33.1896 60.2688 44.761L79.8849 66.1201C87.6126 59.0229 97.5345 54.7809 108.005 54.0976L106.116 25.1592Z" fill="#435648" stroke="white"/>
<path d="M60.2688 44.761C48.9944 55.1154 41.1583 68.6716 37.813 83.6093C34.4676 98.5469 35.7731 114.151 41.5542 128.325C47.3353 142.499 57.3151 154.564 70.1534 162.901C82.9916 171.238 98.0735 175.447 113.373 174.962L112.456 145.977C103.072 146.274 93.8215 143.693 85.9474 138.579C78.0733 133.466 71.9523 126.066 68.4066 117.372C64.8608 108.679 64.0601 99.1088 66.1119 89.947C68.1638 80.7853 72.9699 72.4707 79.8848 66.1201L60.2688 44.761Z" fill="#346942" stroke="white"/>
<path d="M113.373 174.962C132.844 174.346 151.311 166.178 164.866 152.187C178.421 138.196 186 119.48 186 100H157C157 111.948 152.351 123.427 144.038 132.008C135.724 140.589 124.398 145.599 112.456 145.977L113.373 174.962Z" fill="#030E06" stroke="white"/>
<path d="M162.277 45.2675L175.951 30.6721L162.277 45.2675Z" fill="#346942"/>
<path d="M162.277 45.2675L175.951 30.6721" stroke="#6B1781"/>
<path d="M176.527 22.6081H181.903V23.4241H176.527V22.6081ZM179.215 24.1441C180.571 24.1441 181.555 25.1641 181.555 26.6281C181.555 28.0801 180.571 29.1001 179.215 29.1001C177.871 29.1001 176.887 28.0801 176.887 26.6281C176.887 25.1641 177.871 24.1441 179.215 24.1441ZM179.215 24.9961C178.387 24.9961 177.787 25.6681 177.787 26.6281C177.787 27.5881 178.387 28.2601 179.215 28.2601C180.055 28.2601 180.667 27.5881 180.667 26.6281C180.667 25.6681 180.055 24.9961 179.215 24.9961ZM184.771 20.7601H185.731V31.6081H184.771V20.7601ZM183.043 25.3201H185.095V26.1481H183.043V25.3201ZM182.455 21.0001H183.391V31.0801H182.455V21.0001ZM178.735 21.0721H179.719V23.1121H178.735V21.0721ZM188.838 21.3361H195.762V22.1401H188.838V21.3361ZM187.59 25.5361H197.418V26.3401H187.59V25.5361ZM192.042 26.0281H193.038V28.9561H192.042V26.0281ZM195.174 21.3361H196.146V22.2001C196.146 23.1841 196.146 24.3361 195.786 25.9681L194.814 25.8361C195.174 24.2761 195.174 23.1601 195.174 22.2001V21.3361ZM188.826 30.5521H196.362V31.3681H188.826V30.5521ZM188.826 27.9841H189.822V30.7681H188.826V27.9841Z" fill="#346942"/>
<path d="M81.5158 31.0386L73.6533 12.6488L81.5158 31.0386Z" fill="#346942"/>
<path d="M81.5158 31.0386L73.6533 12.6488" stroke="#6B1781"/>
<path d="M57.0352 9.57683C59.3392 9.57683 60.8152 10.3328 60.8152 11.5808C60.8152 12.8168 59.3392 13.5608 57.0352 13.5608C54.7192 13.5608 53.2552 12.8168 53.2552 11.5808C53.2552 10.3328 54.7192 9.57683 57.0352 9.57683ZM57.0352 10.3568C55.3312 10.3568 54.2392 10.8248 54.2392 11.5808C54.2392 12.3248 55.3312 12.7928 57.0352 12.7928C58.7392 12.7928 59.8192 12.3248 59.8192 11.5808C59.8192 10.8248 58.7392 10.3568 57.0352 10.3568ZM53.3392 3.27683H60.3232V4.09283H53.3392V3.27683ZM52.1752 7.78883H61.9672V8.59283H52.1752V7.78883ZM56.1952 5.70083H57.1792V8.01683H56.1952V5.70083ZM59.7472 3.27683H60.7192V4.20083C60.7192 5.07683 60.7192 5.95283 60.4312 7.08083L59.4472 6.96083C59.7472 5.84483 59.7472 5.05283 59.7472 4.20083V3.27683ZM64.4623 3.31283H71.3863V4.11683H64.4623V3.31283ZM63.2143 7.51283H73.0423V8.31683H63.2143V7.51283ZM67.6663 8.00483H68.6623V10.9328H67.6663V8.00483ZM70.7983 3.31283H71.7703V4.17683C71.7703 5.16083 71.7703 6.31283 71.4103 7.94483L70.4383 7.81283C70.7983 6.25283 70.7983 5.13683 70.7983 4.17683V3.31283ZM64.4503 12.5288H71.9863V13.3448H64.4503V12.5288ZM64.4503 9.96083H65.4463V12.7448H64.4503V9.96083Z" fill="#346942"/>
<path d="M41.5542 128.325L23.0353 135.878L41.5542 128.325Z" fill="#346942"/>
<path d="M41.5542 128.325L23.0353 135.878" stroke="#6B1781"/>
<path d="M4.13718 131.582H5.13318V133.718H4.13718V131.582ZM7.78518 131.57H8.76918V133.718H7.78518V131.57ZM1.54518 131.186H11.3492V132.002H1.54518V131.186ZM2.63718 133.358H10.1372V136.814H9.14118V134.162H2.63718V133.358ZM6.45318 126.218C8.79318 126.218 10.2692 126.998 10.2692 128.294C10.2692 129.59 8.79318 130.37 6.45318 130.37C4.10118 130.37 2.63718 129.59 2.63718 128.294C2.63718 126.998 4.10118 126.218 6.45318 126.218ZM6.45318 127.01C4.72518 127.01 3.65718 127.478 3.65718 128.294C3.65718 129.098 4.72518 129.578 6.45318 129.578C8.16918 129.578 9.24918 129.098 9.24918 128.294C9.24918 127.478 8.16918 127.01 6.45318 127.01ZM13.8442 126.542H20.7682V127.346H13.8442V126.542ZM12.5962 130.742H22.4242V131.546H12.5962V130.742ZM17.0482 131.234H18.0442V134.162H17.0482V131.234ZM20.1802 126.542H21.1522V127.406C21.1522 128.39 21.1522 129.542 20.7922 131.174L19.8202 131.042C20.1802 129.482 20.1802 128.366 20.1802 127.406V126.542ZM13.8322 135.758H21.3682V136.574H13.8322V135.758ZM13.8322 133.19H14.8282V135.974H13.8322V133.19Z" fill="#346942"/>
<path d="M164.866 152.187L179.23 166.104L164.866 152.187Z" fill="#346942"/>
<path d="M164.866 152.187L179.23 166.104" stroke="#6B1781"/>
<path d="M179.806 158.04H185.182V158.856H179.806V158.04ZM182.494 159.576C183.85 159.576 184.834 160.596 184.834 162.06C184.834 163.512 183.85 164.532 182.494 164.532C181.15 164.532 180.166 163.512 180.166 162.06C180.166 160.596 181.15 159.576 182.494 159.576ZM182.494 160.428C181.666 160.428 181.066 161.1 181.066 162.06C181.066 163.02 181.666 163.692 182.494 163.692C183.334 163.692 183.946 163.02 183.946 162.06C183.946 161.1 183.334 160.428 182.494 160.428ZM188.05 156.192H189.01V167.04H188.05V156.192ZM186.322 160.752H188.374V161.58H186.322V160.752ZM185.734 156.432H186.67V166.512H185.734V156.432ZM182.014 156.504H182.998V158.544H182.014V156.504ZM195.993 157.956H199.053V158.772H195.993V157.956ZM195.993 160.176H199.053V161.004H195.993V160.176ZM191.397 156.852H192.381V158.58H195.321V156.852H196.293V161.964H191.397V156.852ZM192.381 159.384V161.16H195.321V159.384H192.381ZM198.789 156.192H199.785V162.756H198.789V156.192ZM196.221 162.972C198.453 162.972 199.833 163.728 199.833 165C199.833 166.284 198.453 167.016 196.221 167.016C193.977 167.016 192.597 166.284 192.597 165C192.597 163.728 193.977 162.972 196.221 162.972ZM196.221 163.764C194.589 163.764 193.593 164.208 193.593 165C193.593 165.78 194.589 166.236 196.221 166.236C197.853 166.236 198.849 165.78 198.849 165C198.849 164.208 197.853 163.764 196.221 163.764Z" fill="#346942"/>
</svg>
