<svg width="83" height="25" viewBox="0 0 83 25" fill="none" xmlns="http://www.w3.org/2000/svg">
<path d="M7.41084 11L0.966275 0.133503H4.815L7.7302 4.96488L10.0231 1.03427V6.50437L7.41084 11ZM10.5553 11V0.133503H14.1748V11H10.5553ZM0.958086 11V1.14072L4.34005 6.81554V11H0.958086ZM15.8616 11V8.68258H16.9508V2.44274H15.8616V0.133503H21.6593V2.44274H20.5702V8.68258H21.6593V11H15.8616ZM23.4117 11V0.133503H27.0311V11H23.4117ZM27.6043 11V8.82998H29.3977V7.45426H32.6814V11H27.6043ZM34.0571 11V8.68258H35.1462V2.44274H34.0571V0.133503H39.8547V2.44274H38.7656V8.68258H39.8547V11H34.0571ZM5.08523 22.2076V20.0294H7.71382V16.3035H5.08523V14.1335H9.14686L11.3169 16.3035V20.0294L9.14686 22.2076H5.08523ZM0.958086 25V14.1335H4.51201V25H0.958086ZM17.1063 21.7409V19.6364H19.825V16.3035H17.1063V14.1335H21.2417L23.4199 16.3035V19.5627L21.733 21.2495L23.7884 25H19.9233L18.3838 21.7409H17.1063ZM12.9137 25V14.1335H16.5331V25H12.9137ZM25.1477 25V14.1335H28.7671V18.4408H32.231V20.5371H28.7671V25H25.1477ZM31.5923 17.278V16.238H29.3404V14.1335H34.9988V17.278H31.5923ZM29.3404 25V22.83H31.3794V21.7409H34.9988V25H29.3404ZM39.8138 25L35.8832 14.1335H39.5763L43.335 25H39.8138ZM43.7772 24.6724L42.1476 19.8902L43.9 14.1335H47.5358L43.7772 24.6724ZM48.4202 25V22.6826H49.5093V16.4427H48.4202V14.1335H54.2178V16.4427H53.1287V22.6826H54.2178V25H48.4202ZM55.9702 25V14.1335H59.5897V18.4408H63.0535V20.5371H59.5897V25H55.9702ZM62.4148 17.278V16.238H60.1629V14.1335H65.8213V17.278H62.4148ZM60.1629 25V22.83H62.2019V21.7409H65.8213V25H60.1629ZM69.9567 25L66.7057 14.1335H70.3088L71.9056 20.1031L72.9947 15.542L74.4113 20.7009L73.2404 25H69.9567ZM76.131 25L73.1503 14.1335H76.8025L79.5867 25H76.131ZM79.9715 24.435L78.4975 18.6455L79.6194 14.1335H82.9195L79.9715 24.435Z" fill="#437550"/>
</svg>
