<svg version="1.1" id="Layer_1" xmlns="http://www.w3.org/2000/svg" xmlns:xlink="http://www.w3.org/1999/xlink" x="0px" y="0px"
	 width="100%" viewBox="0 0 512 512" enable-background="new 0 0 512 512" xml:space="preserve">
<path fill="#C6C3BD" opacity="1.000000" stroke="none" 
	d="
M278.000000,513.000000 
	C264.312439,513.000000 250.624878,513.000000 236.146851,512.744141 
	C226.683868,511.293457 217.960083,510.386475 209.348190,508.851624 
	C180.101685,503.639191 152.640381,493.365326 127.092850,478.292847 
	C101.404182,463.137146 79.082726,443.874084 59.931511,420.622955 
	C79.692978,347.168427 126.500458,299.558960 197.901245,274.234802 
	C171.373657,255.174667 155.551056,230.061279 151.838486,198.031036 
	C148.109787,165.861572 158.047867,137.731186 179.668854,114.079041 
	C217.106537,73.124336 284.190491,68.151688 327.818878,107.663414 
	C350.584686,128.281082 362.418274,154.351303 362.634888,185.003250 
	C362.899963,222.515671 346.684875,252.125595 316.078644,274.330811 
	C325.444183,278.045868 334.122253,280.999786 342.381287,284.852112 
	C372.157867,298.741119 397.113708,318.721466 417.348846,344.687592 
	C435.136108,367.512573 447.357147,392.926727 453.904083,421.288452 
	C440.613983,434.247467 428.210175,447.750488 414.270691,459.418915 
	C397.576996,473.392883 378.602905,484.148285 358.455414,492.647278 
	C338.965515,500.868866 318.870056,506.937744 297.900879,509.984131 
	C291.261353,510.948700 284.633301,511.992462 278.000000,513.000000 
z"/>
<path fill="#EFECE8" opacity="1.000000" stroke="none" 
	d="
M454.110260,421.019989 
	C447.357147,392.926727 435.136108,367.512573 417.348846,344.687592 
	C397.113708,318.721466 372.157867,298.741119 342.381287,284.852112 
	C334.122253,280.999786 325.444183,278.045868 316.078644,274.330811 
	C346.684875,252.125595 362.899963,222.515671 362.634888,185.003250 
	C362.418274,154.351303 350.584686,128.281082 327.818878,107.663414 
	C284.190491,68.151688 217.106537,73.124336 179.668854,114.079041 
	C158.047867,137.731186 148.109787,165.861572 151.838486,198.031036 
	C155.551056,230.061279 171.373657,255.174667 197.901245,274.234802 
	C126.500458,299.558960 79.692978,347.168427 59.660225,420.439941 
	C44.418053,402.279144 31.832117,382.503448 22.288916,360.750519 
	C12.686580,338.862823 6.292281,316.152985 2.929469,292.529633 
	C2.752541,291.286743 1.664098,290.173553 1.000002,289.000000 
	C1.000000,286.299988 1.000000,283.599976 1.076160,280.325073 
	C1.286075,279.500031 1.235302,279.249969 1.000000,279.000000 
	C1.000000,264.645782 1.000000,250.291550 1.071633,235.340302 
	C1.292848,234.494888 1.245093,234.247131 1.000000,234.000000 
	C1.000000,231.299988 1.000000,228.599976 1.361535,225.322784 
	C2.126421,224.064026 2.806803,223.415695 2.893117,222.696091 
	C6.090001,196.043396 13.793919,170.679993 25.303343,146.519699 
	C42.084023,111.294113 65.984772,81.610062 96.314919,57.096771 
	C133.144257,27.330742 175.055084,9.346117 221.962082,2.917098 
	C223.042007,2.769083 223.990311,1.660520 225.000000,1.000001 
	C227.700012,1.000000 230.400024,1.000000 233.650696,1.125200 
	C234.201340,1.250400 234.644135,1.305578 234.644135,1.305578 
	C234.644135,1.305578 235.000000,1.000000 235.000000,1.000000 
	C249.354233,1.000000 263.708466,1.000000 278.637024,1.121362 
	C279.211395,1.242725 279.652344,1.309618 279.652344,1.309618 
	C279.652344,1.309618 280.000000,1.000000 280.000000,1.000000 
	C282.700012,1.000000 285.400024,1.000000 288.677185,1.361537 
	C289.935944,2.126421 290.584259,2.806795 291.303864,2.893111 
	C317.956543,6.090090 343.319977,13.793841 367.480255,25.303307 
	C402.705780,42.084064 432.389862,65.984741 456.903198,96.314880 
	C486.669312,133.144211 504.653748,175.055099 511.082947,221.962021 
	C511.230988,223.041977 512.339478,223.990280 513.000000,225.000000 
	C513.000000,227.700012 513.000000,230.400024 512.923828,233.674927 
	C512.713867,234.499985 512.764648,234.750046 513.000000,235.000000 
	C513.000000,249.354233 513.000000,263.708466 512.928223,278.659668 
	C512.707031,279.505127 512.754883,279.752899 513.000000,280.000000 
	C513.000000,282.700012 513.000000,285.400024 512.638428,288.677185 
	C511.855438,290.269379 511.236847,291.248688 511.045593,292.305359 
	C510.041016,297.854462 509.301147,303.454834 508.182068,308.979248 
	C504.368164,327.807556 498.418457,345.912262 490.454376,363.438324 
	C480.958710,384.334686 468.914429,403.523499 454.110260,421.019989 
z"/>
<path fill="#FFFFFF" opacity="1.000000" stroke="none" 
	d="
M453.904083,421.288452 
	C468.914429,403.523499 480.958710,384.334686 490.454376,363.438324 
	C498.418457,345.912262 504.368164,327.807556 508.182068,308.979248 
	C509.301147,303.454834 510.041016,297.854462 511.045593,292.305359 
	C511.236847,291.248688 511.855438,290.269379 512.638428,289.127197 
	C513.000000,363.595459 513.000000,438.190918 513.000000,513.000000 
	C434.979248,513.000000 356.958282,513.000000 278.468658,513.000000 
	C284.633301,511.992462 291.261353,510.948700 297.900879,509.984131 
	C318.870056,506.937744 338.965515,500.868866 358.455414,492.647278 
	C378.602905,484.148285 397.576996,473.392883 414.270691,459.418915 
	C428.210175,447.750488 440.613983,434.247467 453.904083,421.288452 
z"/>
<path fill="#FFFFFF" opacity="1.000000" stroke="none" 
	d="
M1.000002,289.468658 
	C1.664098,290.173553 2.752541,291.286743 2.929469,292.529633 
	C6.292281,316.152985 12.686580,338.862823 22.288916,360.750519 
	C31.832117,382.503448 44.418053,402.279144 59.617996,420.835510 
	C79.082726,443.874084 101.404182,463.137146 127.092850,478.292847 
	C152.640381,493.365326 180.101685,503.639191 209.348190,508.851624 
	C217.960083,510.386475 226.683868,511.293457 235.678192,512.744141 
	C157.741379,513.000000 79.482758,513.000000 1.000000,513.000000 
	C1.000000,438.645935 1.000000,364.291626 1.000002,289.468658 
z"/>
<path fill="#FFFFFF" opacity="1.000000" stroke="none" 
	d="
M224.531342,1.000001 
	C223.990311,1.660520 223.042007,2.769083 221.962082,2.917098 
	C175.055084,9.346117 133.144257,27.330742 96.314919,57.096771 
	C65.984772,81.610062 42.084023,111.294113 25.303343,146.519699 
	C13.793919,170.679993 6.090001,196.043396 2.893117,222.696091 
	C2.806803,223.415695 2.126421,224.064026 1.361535,224.872803 
	C1.000000,150.406296 1.000000,75.812576 1.000000,1.000000 
	C75.354088,1.000000 149.708389,1.000000 224.531342,1.000001 
z"/>
<path fill="#FFFFFF" opacity="1.000000" stroke="none" 
	d="
M513.000000,224.531342 
	C512.339478,223.990280 511.230988,223.041977 511.082947,221.962021 
	C504.653748,175.055099 486.669312,133.144211 456.903198,96.314880 
	C432.389862,65.984741 402.705780,42.084064 367.480255,25.303307 
	C343.319977,13.793841 317.956543,6.090090 291.303864,2.893111 
	C290.584259,2.806795 289.935944,2.126421 289.127197,1.361537 
	C363.593719,1.000000 438.187408,1.000000 513.000000,1.000000 
	C513.000000,75.354088 513.000000,149.708389 513.000000,224.531342 
z"/>
<path fill="#FFFFFF" opacity="1.000000" stroke="none" 
	d="
M234.750000,1.000000 
	C235.000000,1.000000 234.644135,1.305578 234.644135,1.305578 
	C234.644135,1.305578 234.201340,1.250400 234.100677,1.125200 
	C234.000000,1.000000 234.500000,1.000000 234.750000,1.000000 
z"/>
<path fill="#FFFFFF" opacity="1.000000" stroke="none" 
	d="
M279.750000,1.000000 
	C280.000000,1.000000 279.652344,1.309618 279.652344,1.309618 
	C279.652344,1.309618 279.211395,1.242725 279.105713,1.121362 
	C279.000000,1.000000 279.500000,1.000000 279.750000,1.000000 
z"/>
<path fill="#FFFFFF" opacity="1.000000" stroke="none" 
	d="
M1.000000,234.250000 
	C1.245093,234.247131 1.292848,234.494888 1.071633,234.871643 
	C1.000000,235.000000 1.000000,234.500000 1.000000,234.250000 
z"/>
<path fill="#FFFFFF" opacity="1.000000" stroke="none" 
	d="
M513.000000,234.750000 
	C512.764648,234.750046 512.713867,234.499985 512.923828,234.124908 
	C513.000000,234.000000 513.000000,234.500000 513.000000,234.750000 
z"/>
<path fill="#FFFFFF" opacity="1.000000" stroke="none" 
	d="
M1.000000,279.250000 
	C1.235302,279.249969 1.286075,279.500031 1.076160,279.875122 
	C1.000000,280.000000 1.000000,279.500000 1.000000,279.250000 
z"/>
<path fill="#FFFFFF" opacity="1.000000" stroke="none" 
	d="
M513.000000,279.750000 
	C512.754883,279.752899 512.707031,279.505127 512.928223,279.128357 
	C513.000000,279.000000 513.000000,279.500000 513.000000,279.750000 
z"/>
</svg>